<svg xmlns="http://www.w3.org/2000/svg" width="233" height="44.59" viewBox="81.874 15.669 233 44.59"><path d="M152.796 54.704c0 .94-.23 1.691-.688 2.215-.459.522-1.086.793-1.901.793-.501 0-.96-.125-1.335-.376-.397-.251-.69-.605-.898-1.064s-.312-.98-.312-1.587c0-.94.23-1.691.689-2.214.459-.522 1.085-.794 1.9-.794.793 0 1.42.271 1.878.794.436.564.667 1.295.667 2.233zm-4.594 0c0 .795.167 1.42.522 1.859.355.438.855.668 1.482.668.648 0 1.128-.23 1.482-.668.355-.439.522-1.064.522-1.859 0-.793-.166-1.419-.522-1.857-.354-.439-.856-.667-1.482-.667-.647 0-1.127.228-1.482.667-.333.418-.522 1.044-.522 1.857zm8.372-2.902v2.547h3.676v-2.547h.521v5.806h-.521v-2.799h-3.676v2.799h-.522v-5.806h.522zm11.798 5.806h-.521v-5.303h-2.047c-.103 1.397-.229 2.483-.396 3.215-.146.73-.355 1.273-.605 1.628-.25.354-.563.522-.94.522-.146 0-.251-.021-.355-.042v-.48a.964.964 0 0 0 .292.042c.397 0 .731-.418.982-1.275.251-.855.438-2.212.563-4.091h3.049v5.784h-.022zm7.099 0l-.125-.919h-.042c-.292.375-.584.647-.898.794a2.52 2.52 0 0 1-1.086.229c-.563 0-1.001-.146-1.336-.438-.312-.292-.48-.689-.48-1.21 0-.564.23-1.003.71-1.315.481-.313 1.149-.48 2.047-.502l1.106-.041v-.377c0-.543-.104-.96-.333-1.253-.23-.271-.585-.417-1.085-.417-.543 0-1.085.146-1.671.438l-.188-.459c.647-.293 1.274-.438 1.899-.438.647 0 1.107.166 1.421.501.312.333.479.856.479 1.545v3.863l-.418-.001zm-2.129-.377c.626 0 1.106-.167 1.461-.521.355-.355.543-.856.543-1.482v-.563l-1.023.041c-.814.042-1.399.167-1.733.377-.355.208-.522.543-.522 1.001 0 .355.104.648.334.855.23.189.542.292.94.292zm6.555-5.429v4.197l-.042 1.086 3.446-5.283h.709v5.806h-.501v-4.177l.021-1.126-3.446 5.281h-.689v-5.805h.501v.021h.001zm1.797-.813c-.522 0-.94-.125-1.211-.354-.272-.23-.438-.626-.481-1.148h.461c.061.397.166.668.354.835.187.167.479.25.876.25s.688-.083.876-.25c.189-.167.314-.438.355-.814h.479c-.081.98-.644 1.481-1.709 1.481zm6.431.813v2.547h3.674v-2.547h.522v5.806h-.521v-2.799h-3.674v2.799h-.522v-5.806h.521zm15.409 0h.648l-2.61 2.819 2.776 2.986h-.709l-2.736-2.944v2.944h-.522v-5.806h.544v2.819l2.609-2.818zm5.992 5.909c-.898 0-1.546-.333-1.962-1.002h-.043l.021.438c.022.271.022.543.022.856v2.234h-.523V51.8h.438l.104.836h.042c.396-.626 1.044-.939 1.922-.939.771 0 1.376.25 1.794.771.418.522.628 1.254.628 2.255 0 .962-.21 1.692-.648 2.213-.459.525-1.042.775-1.795.775zm0-.458c.585 0 1.045-.23 1.378-.669.335-.438.48-1.064.48-1.858 0-1.713-.605-2.546-1.837-2.546-.668 0-1.17.186-1.482.562-.313.376-.48.981-.48 1.816v.167c0 .898.147 1.545.46 1.942.293.377.793.586 1.481.586zm8.019.458c-.836 0-1.504-.25-1.963-.772-.479-.521-.71-1.252-.71-2.191 0-.919.23-1.672.688-2.234.46-.564 1.064-.836 1.837-.836.689 0 1.233.231 1.608.71.397.48.585 1.128.585 1.942v.418h-4.176c0 .794.188 1.399.564 1.816.375.418.877.627 1.565.627.334 0 .627-.021.877-.062.25-.042.563-.146.96-.293v.48a4.98 4.98 0 0 1-.897.292c-.292.083-.604.103-.938.103zm-.168-5.554c-.562 0-1.002.188-1.336.543-.333.375-.543.897-.584 1.586h3.59c0-.667-.145-1.189-.438-1.586-.292-.354-.711-.543-1.232-.543zm10.189 7.414h-.521v-1.963h-4.448v1.963h-.5v-2.465h.375a8.296 8.296 0 0 0 1.128-2.358c.271-.898.396-1.88.416-2.945h2.8v5.304h.772v2.465h-.022v-.001zm-1.294-2.465v-4.801h-1.796c-.083 1.92-.543 3.528-1.399 4.801h3.195zm4.677-5.304v4.197l-.041 1.086 3.445-5.283h.71v5.806h-.502v-4.177l.021-1.126-3.445 5.281h-.689v-5.805h.501v.021zm11.38.46h-1.941v5.346h-.522v-5.346h-1.984v-.46h4.428v.46h.019zm3.362 1.983h1.837c1.357 0 2.047.543 2.047 1.607 0 .543-.188.981-.565 1.295s-.919.459-1.65.459h-2.212V51.8h.521v2.443l.022.002zm0 .502v2.358h1.774c.501 0 .897-.104 1.148-.312.25-.209.396-.522.396-.939 0-.376-.125-.669-.354-.835-.23-.168-.648-.252-1.233-.252h-1.731v-.02zm5.429 2.861h-.522v-5.806h.522v5.806zm8.601-5.806v2.547h3.676v-2.547h.522v5.806h-.522v-2.799h-3.676v2.799h-.521v-5.806h.521zm11.318 5.806l-.125-.919h-.042c-.293.375-.585.647-.897.794a2.524 2.524 0 0 1-1.086.229c-.563 0-1.002-.146-1.336-.438-.313-.292-.48-.689-.48-1.21 0-.564.23-1.003.71-1.315.48-.313 1.148-.48 2.047-.502l1.105-.041v-.377c0-.543-.104-.96-.333-1.253-.23-.271-.585-.417-1.085-.417-.544 0-1.087.146-1.672.438l-.188-.459c.647-.293 1.274-.438 1.899-.438.648 0 1.108.166 1.421.501.313.333.479.856.479 1.545v3.863l-.417-.001zm-2.13-.377c.626 0 1.107-.167 1.462-.521.354-.355.543-.856.543-1.482v-.563l-1.023.041c-.814.042-1.398.167-1.733.377-.354.208-.522.543-.522 1.001 0 .355.105.648.335.855.206.189.522.292.938.292zm13.677-5.429h.648l-2.609 2.819 2.776 2.986h-.711l-2.733-2.944v2.944h-.543v-5.806h.543v2.819l2.629-2.818zm7.015 5.806l-.125-.919h-.042c-.292.375-.584.647-.897.794a2.52 2.52 0 0 1-1.086.229c-.565 0-1.003-.146-1.336-.438-.314-.292-.479-.689-.479-1.21 0-.564.229-1.003.709-1.315.479-.313 1.15-.48 2.046-.502l1.106-.041v-.377c0-.543-.104-.96-.333-1.253-.231-.271-.584-.417-1.087-.417-.543 0-1.086.146-1.669.438l-.189-.459c.648-.293 1.276-.438 1.901-.438.647 0 1.105.166 1.419.501.313.333.479.856.479 1.545v3.863l-.417-.001zm-2.13-.377c.627 0 1.108-.167 1.461-.521.355-.355.544-.856.544-1.482v-.563l-1.023.041c-.815.042-1.399.167-1.732.377-.355.208-.522.543-.522 1.001 0 .355.105.648.335.855.226.189.541.292.937.292zm8.541.48c-.898 0-1.547-.333-1.965-1.002h-.042l.022.438c.02.271.02.543.02.856v2.234h-.521V51.8h.438l.104.836h.041c.397-.626 1.045-.939 1.921-.939.772 0 1.378.25 1.797.771.417.522.624 1.254.624 2.255 0 .962-.207 1.692-.647 2.213-.457.525-1.062.775-1.792.775zm-.022-.458c.585 0 1.045-.23 1.379-.669.335-.438.479-1.064.479-1.858 0-1.713-.604-2.546-1.836-2.546-.668 0-1.171.186-1.484.562-.312.376-.479.981-.479 1.816v.167c0 .898.147 1.545.46 1.942.292.377.793.586 1.481.586zm9.354-4.991h-1.942v5.346h-.5v-5.346h-1.984v-.46h4.426v.46zm1.86-.46h.542l1.232 3.257c.377 1.003.606 1.672.71 2.026h.042c.147-.46.397-1.148.729-2.046l1.234-3.216h.543l-2.611 6.743c-.208.543-.375.919-.521 1.106a1.639 1.639 0 0 1-.503.439c-.187.104-.418.146-.688.146a2.64 2.64 0 0 1-.668-.104v-.459c.208.062.438.082.668.082.188 0 .335-.04.48-.125a.983.983 0 0 0 .376-.396 5.94 5.94 0 0 0 .397-.855c.145-.397.25-.647.292-.752l-2.254-5.846zM147.27 42.608V19.427h4.625l6.704 9.688 6.705-9.688h4.624v23.181h-4.183V25.479l-7.166 10.255-7.167-10.255v17.149h-4.141v-.02zm26.165-23.181h5.044l6.137 9.414 6.115-9.414h5.044l-9.058 13.238v9.942h-4.182v-9.942l-9.1-13.238z" fill="#003764"/><path fill="#0055B8" d="M199.011 36.008c-.441-1.429-.651-3.108-.651-5 0-1.893.209-3.573.651-5.001.441-1.43 1.01-2.584 1.703-3.449a8.048 8.048 0 0 1 2.521-2.08c.987-.547 1.956-.903 2.879-1.071.945-.189 1.954-.274 3.047-.274 2.375 0 4.709.462 7.02 1.366v3.91c-2.208-1.008-4.414-1.535-6.663-1.535-1.05 0-1.934.084-2.669.273a6.147 6.147 0 0 0-2.164 1.071c-.715.527-1.239 1.368-1.62 2.501-.377 1.136-.544 2.566-.544 4.269 0 1.722.188 3.149.544 4.265.359 1.134.905 1.954 1.62 2.502.714.526 1.429.883 2.164 1.072.735.189 1.642.272 2.669.272 2.229 0 4.455-.503 6.663-1.535v3.889c-2.312.924-4.665 1.387-7.02 1.387-1.093 0-2.102-.085-3.047-.275-.945-.188-1.892-.545-2.879-1.07a8.664 8.664 0 0 1-2.521-2.08c-.693-.821-1.261-1.976-1.703-3.407zm22.066 6.6V19.427h8.912c2.712 0 4.834.651 6.326 1.932 1.514 1.282 2.27 3.133 2.27 5.528 0 3.532-1.702 5.821-5.085 6.853l6.094 8.868h-5.044l-5.527-8.175h-3.741v8.175h-4.205zm4.184-12.002h4.623c1.407 0 2.521-.25 3.319-.756.799-.501 1.199-1.45 1.199-2.856 0-1.43-.4-2.397-1.199-2.88-.798-.504-1.911-.735-3.319-.735h-4.623v7.227zm18.516 12.002V19.427h15.426v3.74H247.96v5.862h9.75v3.931h-9.75v5.864h11.243v3.738h-15.426v.046zm20.427 0V19.427h8.007c3.593 0 6.306.987 8.177 2.964 1.849 1.975 2.793 4.854 2.793 8.658 0 3.782-.923 6.662-2.773 8.614-1.849 1.977-4.581 2.965-8.176 2.965h-8.027v-.02h-.001zm4.162-3.741h3.824c2.417 0 4.14-.612 5.191-1.829 1.05-1.22 1.597-3.216 1.597-5.989 0-2.793-.525-4.813-1.597-6.033-1.052-1.216-2.796-1.828-5.191-1.828h-3.824v15.679zm19.922 3.741V19.427h4.184v23.181h-4.184zm7.587-19v-4.181h18.999v4.181h-7.44v19h-4.183v-19h-7.376z"/><path fill="#003764" d="M120.973 17.655c-.792-1.093-2.547-1.986-3.897-1.986H84.328a2.461 2.461 0 0 0-2.455 2.455v3.89h42.267l-3.167-4.359z"/><path fill="#0055B8" d="M132.357 33.323l-5.167-7.111H81.873v26.282a2.461 2.461 0 0 0 2.455 2.455h32.749c1.35 0 3.104-.895 3.897-1.986l11.384-15.668c.792-1.094.792-2.88-.001-3.972zM90.45 49.567h-1.931a1.933 1.933 0 0 1 0-3.867h1.931c1.069 0 1.932.866 1.932 1.933a1.932 1.932 0 0 1-1.932 1.934zm15.055 0h-8.194a1.933 1.933 0 0 1 0-3.867h8.194a1.934 1.934 0 0 1 0 3.867zm.401-9.66H88.519a1.933 1.933 0 1 1 0-3.867h17.386a1.933 1.933 0 0 1 .001 3.867z"/></svg>